<svg width="196" height="35" viewBox="0 0 196 35" fill="none" xmlns="http://www.w3.org/2000/svg">
<g filter="url(#filter0_d_973_38848)">
<path d="M16.5196 5.66543V29H11.0655V5.66543H2.9943V1.37012H24.8305L24.2711 5.66543H16.5196ZM35.4633 5.40572V12.9775H45.2526V16.9531H35.4633V24.9844H47.3503V29H29.9893V1.37012H47.2105L46.6511 5.40572H35.4633ZM64.0765 0.77077C65.9944 0.77077 67.6193 1.02383 68.9512 1.52994C70.283 2.02274 71.515 2.7353 72.6471 3.66761L69.8702 6.96402C69.0843 6.29808 68.2186 5.79197 67.273 5.44568C66.3407 5.09939 65.3418 4.92624 64.2762 4.92624C62.9976 4.92624 61.8189 5.26587 60.7401 5.94513C59.6746 6.62439 58.8155 7.71653 58.1629 9.22156C57.5236 10.7133 57.204 12.6845 57.204 15.1351C57.204 17.5458 57.5103 19.497 58.123 20.9887C58.7489 22.4804 59.5947 23.5726 60.6602 24.2652C61.739 24.9444 62.9577 25.2841 64.3162 25.2841C65.7546 25.2841 66.9467 25.031 67.8923 24.5249C68.8379 24.0188 69.6903 23.466 70.4495 22.8667L73.0267 26.1231C72.0544 27.0821 70.8358 27.9012 69.3707 28.5805C67.9189 29.2597 66.1542 29.5993 64.0765 29.5993C61.6658 29.5993 59.5148 29.0466 57.6235 27.9412C55.7322 26.8357 54.2472 25.2108 53.1684 23.0665C52.0895 20.9221 51.5501 18.2784 51.5501 15.1351C51.5501 12.0451 52.1029 9.43466 53.2083 7.30365C54.3271 5.15932 55.8321 3.53442 57.7234 2.42896C59.628 1.3235 61.7457 0.77077 64.0765 0.77077ZM89.7129 29V16.8532H81.7216V29H76.2476V1.37012H81.7216V12.3581H89.7129V1.37012H95.1869V29H89.7129ZM107.897 5.40572V13.5369H117.986V17.5725H107.897V29H102.423V1.37012H119.924L119.345 5.40572H107.897ZM131.296 5.40572V12.9775H141.086V16.9531H131.296V24.9844H143.183V29H125.822V1.37012H143.044L142.484 5.40572H131.296ZM167.861 21.0686C167.861 22.7468 167.428 24.2252 166.562 25.5038C165.71 26.7824 164.478 27.788 162.866 28.5205C161.255 29.2397 159.303 29.5993 157.013 29.5993C154.615 29.5993 152.558 29.2464 150.839 28.5405C149.121 27.8213 147.683 26.9023 146.524 25.7835L149.401 22.567C150.4 23.4594 151.519 24.1586 152.757 24.6647C153.996 25.1708 155.388 25.4239 156.933 25.4239C157.918 25.4239 158.804 25.2707 159.59 24.9644C160.389 24.6581 161.015 24.2119 161.468 23.6259C161.934 23.0265 162.167 22.294 162.167 21.4283C162.167 20.6691 162.007 20.0298 161.688 19.5103C161.368 18.9909 160.815 18.5248 160.029 18.1119C159.257 17.699 158.178 17.2861 156.793 16.8732C154.755 16.2472 153.077 15.5613 151.758 14.8155C150.44 14.0563 149.461 13.1639 148.822 12.1384C148.182 11.0995 147.863 9.87418 147.863 8.46239C147.863 6.87745 148.302 5.51227 149.181 4.36685C150.06 3.20811 151.246 2.32241 152.737 1.70975C154.242 1.08376 155.921 0.77077 157.772 0.77077C159.823 0.77077 161.628 1.07044 163.186 1.66979C164.744 2.25582 166.116 3.0949 167.301 4.18705L164.564 7.28367C163.619 6.47123 162.593 5.87188 161.488 5.48563C160.396 5.09939 159.284 4.90626 158.151 4.90626C157.259 4.90626 156.46 5.02613 155.754 5.26587C155.061 5.50561 154.515 5.85856 154.116 6.32472C153.716 6.79088 153.516 7.38356 153.516 8.10278C153.516 8.7554 153.696 9.31479 154.056 9.78095C154.429 10.2338 155.061 10.66 155.954 11.0596C156.846 11.4458 158.071 11.8853 159.63 12.3781C161.268 12.8709 162.7 13.4636 163.925 14.1562C165.164 14.8488 166.129 15.7478 166.822 16.8532C167.515 17.9454 167.861 19.3505 167.861 21.0686ZM184.227 5.66543V29H178.773V5.66543H170.702V1.37012H192.538L191.979 5.66543H184.227Z" fill="url(#paint0_linear_973_38848)" shape-rendering="crispEdges"/>
</g>
<defs>
<filter id="filter0_d_973_38848" x="0.496863" y="0.770508" width="194.539" height="33.8237" filterUnits="userSpaceOnUse" color-interpolation-filters="sRGB">
<feFlood flood-opacity="0" result="BackgroundImageFix"/>
<feColorMatrix in="SourceAlpha" type="matrix" values="0 0 0 0 0 0 0 0 0 0 0 0 0 0 0 0 0 0 127 0" result="hardAlpha"/>
<feOffset dy="2.49728"/>
<feGaussianBlur stdDeviation="1.24864"/>
<feComposite in2="hardAlpha" operator="out"/>
<feColorMatrix type="matrix" values="0 0 0 0 0 0 0 0 0 0 0 0 0 0 0 0 0 0 0.25 0"/>
<feBlend mode="normal" in2="BackgroundImageFix" result="effect1_dropShadow_973_38848"/>
<feBlend mode="normal" in="SourceGraphic" in2="effect1_dropShadow_973_38848" result="shape"/>
</filter>
<linearGradient id="paint0_linear_973_38848" x1="97.6886" y1="-13" x2="97.6886" y2="44.4374" gradientUnits="userSpaceOnUse">
<stop stop-color="#FFE600"/>
<stop offset="0.5" stop-color="#78ED65" stop-opacity="0.97"/>
<stop offset="1" stop-color="#4285F4"/>
</linearGradient>
</defs>
</svg>
